<svg height="682.66650390625" width="682" xmlns="http://www.w3.org/2000/svg" style=""><rect id="backgroundrect" width="100%" height="100%" x="0" y="0" fill="none" stroke="none"/><g class="currentLayer" style=""><title>Layer 1</title><path d="m75.71875 640c-18.734375 0-36.972656-6.992188-50.894531-19.691406-15.566407-14.195313-24.492188-34.425782-24.492188-55.488282v-100.933593c0-38.304688 28.585938-70.414063 66.492188-74.683594 22.308593-2.515625 44.464843-7.109375 65.863281-13.652344 26.78125-8.191406 55.628906-1.082031 75.273438 18.558594l40.898437 40.894531c78.324219-42.851562 143.636719-108.164062 186.484375-186.472656l-40.902344-40.898438c-19.640625-19.644531-26.75-48.492187-18.554687-75.277343 6.542969-21.398438 11.136719-43.554688 13.652343-65.859375 4.265626-37.910156 36.375-66.496094 74.679688-66.496094h100.929688c21.066406 0 41.296874 8.925781 55.492187 24.492188 14.257813 15.625 21.316406 36.691406 19.375 57.789062-6.664063 72.421875-25.859375 142.347656-57.054687 207.839844-30.324219 63.671875-71.074219 121.328125-121.125 171.378906-50.046876 50.046875-107.707032 90.804688-171.378907 121.125-65.496093 31.191406-135.421875 50.390625-207.84375 57.058594-2.300781.214844-4.597656.316406-6.894531.316406zm79.222656-217.785156c-2.53125 0-5.105468.378906-7.625 1.148437-24.335937 7.445313-49.53125 12.667969-74.894531 15.527344-12.589844 1.417969-22.089844 12.164063-22.089844 24.996094v100.933593c0 7.148438 2.910157 13.734376 8.191407 18.546876 5.339843 4.878906 12.269531 7.195312 19.503906 6.523437 271.769531-25.011719 487.183594-240.429687 512.199218-512.195313.667969-7.234374-1.652343-14.164062-6.523437-19.507812-4.820313-5.277344-11.40625-8.1875-18.554687-8.1875h-100.929688c-12.832031 0-23.578125 9.496094-25 22.089844-2.855469 25.363281-8.078125 50.558594-15.519531 74.894531-2.773438 9.0625-.441407 18.753906 6.097656 25.292969l66.589844 66.589844-8.007813 16.097656c-49.929687 100.355468-132.714844 183.128906-233.089844 233.070312l-16.097656 8.015625-66.585937-66.589843c-4.714844-4.714844-11.074219-7.246094-17.664063-7.246094zm0 0" id="svg_1" class="selected" fill-opacity="1" fill="#2d85f4"/><rect fill="#2d85f4" style="color: rgb(45, 133, 244);" stroke-dashoffset="" fill-rule="nonzero" id="svg_2" x="28" y="413" width="198" height="181"/><rect fill="#2d85f4" style="color: rgb(45, 133, 244);" stroke-dashoffset="" fill-rule="nonzero" id="svg_4" x="207" y="455" width="95" height="105"/><rect fill="#2d85f4" style="color: rgb(45, 133, 244);" stroke-dashoffset="" fill-rule="nonzero" id="svg_6" x="313" y="438" width="47" height="75"/><rect fill="#2d85f4" style="color: rgb(45, 133, 244);" stroke-dashoffset="" fill-rule="nonzero" id="svg_8" x="276" y="452" width="83" height="77"/><rect fill="#2d85f4" style="color: rgb(45, 133, 244);" stroke-dashoffset="" fill-rule="nonzero" id="svg_3" x="352" y="361" width="75" height="128"/><rect fill="#2d85f4" style="color: rgb(45, 133, 244);" stroke-dashoffset="" fill-rule="nonzero" id="svg_7" x="325" y="417" width="54" height="36"/><rect fill="#2d85f4" style="color: rgb(45, 133, 244);" stroke-dashoffset="" fill-rule="nonzero" id="svg_10" x="438" y="255" width="35" height="192"/><rect fill="#2d85f4" style="color: rgb(45, 133, 244);" stroke-dashoffset="" fill-rule="nonzero" id="svg_12" x="412" y="307" width="42" height="159"/><rect fill="#2d85f4" style="color: rgb(45, 133, 244);" stroke-dashoffset="" fill-rule="nonzero" id="svg_14" x="465" y="133" width="40" height="277"/><rect fill="#2d85f4" style="color: rgb(45, 133, 244);" stroke-dashoffset="" fill-rule="nonzero" id="svg_16" x="436" y="38" width="62" height="197"/><rect fill="#2d85f4" style="color: rgb(45, 133, 244);" stroke-dashoffset="" fill-rule="nonzero" id="svg_18" x="484" y="29" width="85" height="233"/><rect fill="#2d85f4" style="color: rgb(45, 133, 244);" stroke-dashoffset="" fill-rule="nonzero" id="svg_20" x="559" y="30" width="16" height="199"/><rect fill="#2d85f4" style="color: rgb(45, 133, 244);" stroke-dashoffset="" fill-rule="nonzero" id="svg_22" x="564" y="35" width="24" height="157"/><rect fill="#2d85f4" style="color: rgb(45, 133, 244);" stroke-dashoffset="" fill-rule="nonzero" id="svg_24" x="575" y="51" width="21" height="68"/><rect fill="#2d85f4" style="color: rgb(45, 133, 244);" stroke-dashoffset="" fill-rule="nonzero" id="svg_26" x="419" y="78" width="49" height="135"/><rect fill="#2d85f4" style="color: rgb(45, 133, 244);" stroke-dashoffset="" fill-rule="nonzero" id="svg_28" x="491" y="221" width="46" height="115"/><rect fill="#2d85f4" style="color: rgb(45, 133, 244);" stroke-dashoffset="" fill-rule="nonzero" id="svg_30" x="506" y="218" width="45" height="65"/></g></svg>