<svg height="512" width="512" xmlns="http://www.w3.org/2000/svg" style=""><rect id="backgroundrect" width="100%" height="100%" x="0" y="0" fill="none" stroke="none"/><g class="currentLayer" style=""><title>Layer 1</title><path d="m240 181h-30v-30h-30v30h-30v-30h-30v120h150v-120h-30zm0 0" id="svg_1" class=""/><path d="m195 512 156.078125-199.089844c25.460937-33.925781 38.921875-74.355468 38.921875-116.910156 0-107.519531-87.480469-196-195-196s-195 88.480469-195 196c0 42.554688 13.460938 82.984375 38.890625 116.863281 2.246094 3.007813 153.738281 196.125 156.109375 199.136719zm-105-391h60v-15c0-24.8125 20.1875-45 45-45s45 20.1875 45 45v15h60v180h-210zm0 0" id="svg_2" class="" fill-opacity="1" fill="#2083fe"/><path d="m210 106c0-8.277344-6.722656-15-15-15s-15 6.722656-15 15v15h30zm0 0" id="svg_3"/><rect fill="#2083fe" style="color: rgb(0, 0, 0);" stroke-dashoffset="" fill-rule="nonzero" id="svg_4" x="81" y="80" width="239" height="231" class="" fill-opacity="1"/><rect fill="#2083fe" style="color: rgb(0, 0, 0);" stroke-dashoffset="" fill-rule="nonzero" id="svg_6" x="111" y="56" width="204" height="55" class="" fill-opacity="1"/></g></svg>